<?xml version="1.0" encoding="UTF-8" standalone="no"?>
<!DOCTYPE svg PUBLIC "-//W3C//DTD SVG 1.1//EN"
 "http://www.w3.org/Graphics/SVG/1.1/DTD/svg11.dtd">
<!-- Generated by graphviz version 2.40.1 (20161225.0304)
 -->
<!-- Title: snakemake_dag Pages: 1 -->
<svg width="332pt" height="334pt"
 viewBox="0.00 0.00 332.46 334.00" xmlns="http://www.w3.org/2000/svg" xmlns:xlink="http://www.w3.org/1999/xlink">
<g id="graph0" class="graph" transform="scale(1 1) rotate(0) translate(4 330)">
<title>snakemake_dag</title>
<polygon fill="#ffffff" stroke="transparent" points="-4,4 -4,-330 328.457,-330 328.457,4 -4,4"/>
<!-- 0 -->
<g id="node1" class="node">
<title>0</title>
<path fill="none" stroke="#56d88a" stroke-width="2" d="M208.3201,-38C208.3201,-38 116.137,-38 116.137,-38 110.137,-38 104.137,-32 104.137,-26 104.137,-26 104.137,-12 104.137,-12 104.137,-6 110.137,0 116.137,0 116.137,0 208.3201,0 208.3201,0 214.3201,0 220.3201,-6 220.3201,-12 220.3201,-12 220.3201,-26 220.3201,-26 220.3201,-32 214.3201,-38 208.3201,-38"/>
<text text-anchor="middle" x="162.2285" y="-26" font-family="sans" font-size="10.00" fill="#000000">summary_neoantigen</text>
<text text-anchor="middle" x="162.2285" y="-16" font-family="sans" font-size="10.00" fill="#000000">method: MHC_Class_I</text>
<text text-anchor="middle" x="162.2285" y="-6" font-family="sans" font-size="10.00" fill="#000000">sample: CGLU259</text>
</g>
<!-- 1 -->
<g id="node2" class="node">
<title>1</title>
<path fill="none" stroke="#56c1d8" stroke-width="2" d="M194.551,-110C194.551,-110 129.9061,-110 129.9061,-110 123.9061,-110 117.9061,-104 117.9061,-98 117.9061,-98 117.9061,-86 117.9061,-86 117.9061,-80 123.9061,-74 129.9061,-74 129.9061,-74 194.551,-74 194.551,-74 200.551,-74 206.551,-80 206.551,-86 206.551,-86 206.551,-98 206.551,-98 206.551,-104 200.551,-110 194.551,-110"/>
<text text-anchor="middle" x="162.2285" y="-89" font-family="sans" font-size="10.00" fill="#000000">pvacseq_predict</text>
</g>
<!-- 1&#45;&gt;0 -->
<g id="edge1" class="edge">
<title>1&#45;&gt;0</title>
<path fill="none" stroke="#c0c0c0" stroke-width="2" d="M162.2285,-73.9551C162.2285,-66.2107 162.2285,-56.9622 162.2285,-48.2811"/>
<polygon fill="#c0c0c0" stroke="#c0c0c0" stroke-width="2" points="165.7286,-48.1128 162.2285,-38.1128 158.7286,-48.1129 165.7286,-48.1128"/>
</g>
<!-- 2 -->
<g id="node3" class="node">
<title>2</title>
<path fill="none" stroke="#d8bc56" stroke-width="2" d="M188.3399,-182C188.3399,-182 136.1172,-182 136.1172,-182 130.1172,-182 124.1172,-176 124.1172,-170 124.1172,-170 124.1172,-158 124.1172,-158 124.1172,-152 130.1172,-146 136.1172,-146 136.1172,-146 188.3399,-146 188.3399,-146 194.3399,-146 200.3399,-152 200.3399,-158 200.3399,-158 200.3399,-170 200.3399,-170 200.3399,-176 194.3399,-182 188.3399,-182"/>
<text text-anchor="middle" x="162.2285" y="-161" font-family="sans" font-size="10.00" fill="#000000">vep_annotate</text>
</g>
<!-- 2&#45;&gt;1 -->
<g id="edge2" class="edge">
<title>2&#45;&gt;1</title>
<path fill="none" stroke="#c0c0c0" stroke-width="2" d="M162.2285,-145.8314C162.2285,-138.131 162.2285,-128.9743 162.2285,-120.4166"/>
<polygon fill="#c0c0c0" stroke="#c0c0c0" stroke-width="2" points="165.7286,-120.4132 162.2285,-110.4133 158.7286,-120.4133 165.7286,-120.4132"/>
</g>
<!-- 3 -->
<g id="node4" class="node">
<title>3</title>
<path fill="none" stroke="#88d856" stroke-width="2" d="M210.8395,-254C210.8395,-254 113.6175,-254 113.6175,-254 107.6175,-254 101.6175,-248 101.6175,-242 101.6175,-242 101.6175,-230 101.6175,-230 101.6175,-224 107.6175,-218 113.6175,-218 113.6175,-218 210.8395,-218 210.8395,-218 216.8395,-218 222.8395,-224 222.8395,-230 222.8395,-230 222.8395,-242 222.8395,-242 222.8395,-248 216.8395,-254 210.8395,-254"/>
<text text-anchor="middle" x="162.2285" y="-233" font-family="sans" font-size="10.00" fill="#000000">del_vcf_normal_column</text>
</g>
<!-- 3&#45;&gt;2 -->
<g id="edge3" class="edge">
<title>3&#45;&gt;2</title>
<path fill="none" stroke="#c0c0c0" stroke-width="2" d="M162.2285,-217.8314C162.2285,-210.131 162.2285,-200.9743 162.2285,-192.4166"/>
<polygon fill="#c0c0c0" stroke="#c0c0c0" stroke-width="2" points="165.7286,-192.4132 162.2285,-182.4133 158.7286,-192.4133 165.7286,-192.4132"/>
</g>
<!-- 4 -->
<g id="node5" class="node">
<title>4</title>
<path fill="none" stroke="#d85656" stroke-width="2" d="M312.6859,-326C312.6859,-326 11.7712,-326 11.7712,-326 5.7712,-326 -.2288,-320 -.2288,-314 -.2288,-314 -.2288,-302 -.2288,-302 -.2288,-296 5.7712,-290 11.7712,-290 11.7712,-290 312.6859,-290 312.6859,-290 318.6859,-290 324.6859,-296 324.6859,-302 324.6859,-302 324.6859,-314 324.6859,-314 324.6859,-320 318.6859,-326 312.6859,-326"/>
<text text-anchor="middle" x="162.2285" y="-310" font-family="sans" font-size="10.00" fill="#000000">maf2vcf</text>
<text text-anchor="middle" x="162.2285" y="-300" font-family="sans" font-size="10.00" fill="#000000">sample: {wildcards.sample}/MHC_Class_I/{wildcards.sample}.final.tsv</text>
</g>
<!-- 4&#45;&gt;3 -->
<g id="edge4" class="edge">
<title>4&#45;&gt;3</title>
<path fill="none" stroke="#c0c0c0" stroke-width="2" d="M162.2285,-289.8314C162.2285,-282.131 162.2285,-272.9743 162.2285,-264.4166"/>
<polygon fill="#c0c0c0" stroke="#c0c0c0" stroke-width="2" points="165.7286,-264.4132 162.2285,-254.4133 158.7286,-264.4133 165.7286,-264.4132"/>
</g>
</g>
</svg>
