<?xml version="1.0" encoding="UTF-8" standalone="no"?>
<!DOCTYPE svg PUBLIC "-//W3C//DTD SVG 1.1//EN"
 "http://www.w3.org/Graphics/SVG/1.1/DTD/svg11.dtd">
<!-- Generated by graphviz version 2.40.1 (20161225.0304)
 -->
<!-- Title: snakemake_dag Pages: 1 -->
<svg width="130pt" height="332pt"
 viewBox="0.00 0.00 129.61 332.00" xmlns="http://www.w3.org/2000/svg" xmlns:xlink="http://www.w3.org/1999/xlink">
<g id="graph0" class="graph" transform="scale(1 1) rotate(0) translate(4 328)">
<title>snakemake_dag</title>
<polygon fill="#ffffff" stroke="transparent" points="-4,4 -4,-328 125.6104,-328 125.6104,4 -4,4"/>
<!-- 0 -->
<g id="node1" class="node">
<title>0</title>
<path fill="none" stroke="#d8bc56" stroke-width="2" d="M104.9723,-36C104.9723,-36 16.6381,-36 16.6381,-36 10.6381,-36 4.6381,-30 4.6381,-24 4.6381,-24 4.6381,-12 4.6381,-12 4.6381,-6 10.6381,0 16.6381,0 16.6381,0 104.9723,0 104.9723,0 110.9723,0 116.9723,-6 116.9723,-12 116.9723,-12 116.9723,-24 116.9723,-24 116.9723,-30 110.9723,-36 104.9723,-36"/>
<text text-anchor="middle" x="60.8052" y="-15" font-family="sans" font-size="10.00" fill="#000000">summary_neoantigen</text>
</g>
<!-- 1 -->
<g id="node2" class="node">
<title>1</title>
<path fill="none" stroke="#56c1d8" stroke-width="2" d="M106.8967,-108C106.8967,-108 14.7136,-108 14.7136,-108 8.7136,-108 2.7136,-102 2.7136,-96 2.7136,-96 2.7136,-84 2.7136,-84 2.7136,-78 8.7136,-72 14.7136,-72 14.7136,-72 106.8967,-72 106.8967,-72 112.8967,-72 118.8967,-78 118.8967,-84 118.8967,-84 118.8967,-96 118.8967,-96 118.8967,-102 112.8967,-108 106.8967,-108"/>
<text text-anchor="middle" x="60.8052" y="-92" font-family="sans" font-size="10.00" fill="#000000">pvacseq_predict</text>
<text text-anchor="middle" x="60.8052" y="-82" font-family="sans" font-size="10.00" fill="#000000">method: MHC_Class_I</text>
</g>
<!-- 1&#45;&gt;0 -->
<g id="edge1" class="edge">
<title>1&#45;&gt;0</title>
<path fill="none" stroke="#c0c0c0" stroke-width="2" d="M60.8052,-71.8314C60.8052,-64.131 60.8052,-54.9743 60.8052,-46.4166"/>
<polygon fill="#c0c0c0" stroke="#c0c0c0" stroke-width="2" points="64.3053,-46.4132 60.8052,-36.4133 57.3053,-46.4133 64.3053,-46.4132"/>
</g>
<!-- 2 -->
<g id="node3" class="node">
<title>2</title>
<path fill="none" stroke="#d85656" stroke-width="2" d="M86.9165,-180C86.9165,-180 34.6938,-180 34.6938,-180 28.6938,-180 22.6938,-174 22.6938,-168 22.6938,-168 22.6938,-156 22.6938,-156 22.6938,-150 28.6938,-144 34.6938,-144 34.6938,-144 86.9165,-144 86.9165,-144 92.9165,-144 98.9165,-150 98.9165,-156 98.9165,-156 98.9165,-168 98.9165,-168 98.9165,-174 92.9165,-180 86.9165,-180"/>
<text text-anchor="middle" x="60.8052" y="-159" font-family="sans" font-size="10.00" fill="#000000">vep_annotate</text>
</g>
<!-- 2&#45;&gt;1 -->
<g id="edge2" class="edge">
<title>2&#45;&gt;1</title>
<path fill="none" stroke="#c0c0c0" stroke-width="2" d="M60.8052,-143.8314C60.8052,-136.131 60.8052,-126.9743 60.8052,-118.4166"/>
<polygon fill="#c0c0c0" stroke="#c0c0c0" stroke-width="2" points="64.3053,-118.4132 60.8052,-108.4133 57.3053,-118.4133 64.3053,-118.4132"/>
</g>
<!-- 3 -->
<g id="node4" class="node">
<title>3</title>
<path fill="none" stroke="#56d88a" stroke-width="2" d="M109.4161,-252C109.4161,-252 12.1942,-252 12.1942,-252 6.1942,-252 .1942,-246 .1942,-240 .1942,-240 .1942,-228 .1942,-228 .1942,-222 6.1942,-216 12.1942,-216 12.1942,-216 109.4161,-216 109.4161,-216 115.4161,-216 121.4161,-222 121.4161,-228 121.4161,-228 121.4161,-240 121.4161,-240 121.4161,-246 115.4161,-252 109.4161,-252"/>
<text text-anchor="middle" x="60.8052" y="-231" font-family="sans" font-size="10.00" fill="#000000">del_vcf_normal_column</text>
</g>
<!-- 3&#45;&gt;2 -->
<g id="edge3" class="edge">
<title>3&#45;&gt;2</title>
<path fill="none" stroke="#c0c0c0" stroke-width="2" d="M60.8052,-215.8314C60.8052,-208.131 60.8052,-198.9743 60.8052,-190.4166"/>
<polygon fill="#c0c0c0" stroke="#c0c0c0" stroke-width="2" points="64.3053,-190.4132 60.8052,-180.4133 57.3053,-190.4133 64.3053,-190.4132"/>
</g>
<!-- 4 -->
<g id="node5" class="node">
<title>4</title>
<path fill="none" stroke="#88d856" stroke-width="2" d="M98.0663,-324C98.0663,-324 23.5441,-324 23.5441,-324 17.5441,-324 11.5441,-318 11.5441,-312 11.5441,-312 11.5441,-300 11.5441,-300 11.5441,-294 17.5441,-288 23.5441,-288 23.5441,-288 98.0663,-288 98.0663,-288 104.0663,-288 110.0663,-294 110.0663,-300 110.0663,-300 110.0663,-312 110.0663,-312 110.0663,-318 104.0663,-324 98.0663,-324"/>
<text text-anchor="middle" x="60.8052" y="-308" font-family="sans" font-size="10.00" fill="#000000">maf2vcf</text>
<text text-anchor="middle" x="60.8052" y="-298" font-family="sans" font-size="10.00" fill="#000000">sample: CGLU259</text>
</g>
<!-- 4&#45;&gt;3 -->
<g id="edge4" class="edge">
<title>4&#45;&gt;3</title>
<path fill="none" stroke="#c0c0c0" stroke-width="2" d="M60.8052,-287.8314C60.8052,-280.131 60.8052,-270.9743 60.8052,-262.4166"/>
<polygon fill="#c0c0c0" stroke="#c0c0c0" stroke-width="2" points="64.3053,-262.4132 60.8052,-252.4133 57.3053,-262.4133 64.3053,-262.4132"/>
</g>
</g>
</svg>
